<?xml version="1.0" encoding="UTF-8"?>
<!DOCTYPE svg PUBLIC "-//W3C//DTD SVG 1.1//EN" "http://www.w3.org/Graphics/SVG/1.1/DTD/svg11.dtd">
<svg xmlns="http://www.w3.org/2000/svg" version="1.1" width="151px" height="143px" style="shape-rendering:geometricPrecision; text-rendering:geometricPrecision; image-rendering:optimizeQuality; fill-rule:evenodd; clip-rule:evenodd" xmlns:xlink="http://www.w3.org/1999/xlink">
<g><path style="opacity:0.978" fill="#0b0e6d" d="M 71.5,0.5 C 74.1667,0.5 76.8333,0.5 79.5,0.5C 80.5145,1.76468 82.0145,2.43135 84,2.5C 85.9855,2.43135 87.4855,1.76468 88.5,0.5C 89.1667,0.833333 89.8333,1.16667 90.5,1.5C 90.4701,2.49722 90.9701,3.16389 92,3.5C 103.637,7.23229 114.137,12.899 123.5,20.5C 124.167,21.8333 125.167,22.8333 126.5,23.5C 129.068,27.6172 131.902,31.6172 135,35.5C 138.082,41.6548 140.582,47.9881 142.5,54.5C 143.373,58.7685 143.706,63.1018 143.5,67.5C 144.5,67.5 145.5,67.5 146.5,67.5C 146.5,70.1667 146.5,72.8333 146.5,75.5C 145.5,75.5 144.5,75.5 143.5,75.5C 143.61,83.9559 141.943,91.9559 138.5,99.5C 136.075,104.686 133.409,109.686 130.5,114.5C 128.167,116.167 126.167,118.167 124.5,120.5C 120.276,124.553 115.61,128.053 110.5,131C 102.142,134.974 93.8091,138.474 85.5,141.5C 82.0058,141.458 78.5058,141.125 75,140.5C 73.0145,140.569 71.5145,141.235 70.5,142.5C 69.5,142.5 68.5,142.5 67.5,142.5C 63.0549,138.55 57.7216,136.383 51.5,136C 47.2306,134.418 46.8972,132.918 50.5,131.5C 53.3655,131.931 56.0322,132.931 58.5,134.5C 59.2975,134.043 59.6309,133.376 59.5,132.5C 67.7171,134.235 76.0504,134.902 84.5,134.5C 85.2739,135.147 86.2739,135.48 87.5,135.5C 101.657,132.972 113.324,126.305 122.5,115.5C 125.115,113.621 127.281,111.288 129,108.5C 133.966,99.8763 137.466,90.7096 139.5,81C 139.392,79.3189 138.725,78.1522 137.5,77.5C 138.167,76.5 138.833,75.5 139.5,74.5C 139.806,71.6146 139.473,68.9479 138.5,66.5C 138.5,66.1667 138.5,65.8333 138.5,65.5C 139.415,53.3149 135.748,42.6483 127.5,33.5C 126.232,29.2329 123.565,26.2329 119.5,24.5C 119.141,22.629 118.141,21.129 116.5,20C 111.019,16.1761 105.185,13.0094 99,10.5C 98.2352,10.5699 97.7352,10.9033 97.5,11.5C 97.1667,11.5 96.8333,11.5 96.5,11.5C 96.0629,9.92558 95.0629,8.75891 93.5,8C 88.8166,7.16545 84.1499,6.33212 79.5,5.5C 78.7025,5.95689 78.3691,6.62356 78.5,7.5C 76.1667,7.5 73.8333,7.5 71.5,7.5C 71.6309,6.62356 71.2975,5.95689 70.5,5.5C 66.8466,6.76409 63.18,6.76409 59.5,5.5C 63.66,3.67287 67.66,2.0062 71.5,0.5 Z"/></g>
<g><path style="opacity:0.659" fill="#464f94" d="M 79.5,0.5 C 82.5,0.5 85.5,0.5 88.5,0.5C 87.4855,1.76468 85.9855,2.43135 84,2.5C 82.0145,2.43135 80.5145,1.76468 79.5,0.5 Z"/></g>
<g><path style="opacity:1" fill="#323887" d="M 71.5,0.5 C 67.66,2.0062 63.66,3.67287 59.5,5.5C 63.18,6.76409 66.8466,6.76409 70.5,5.5C 71.2975,5.95689 71.6309,6.62356 71.5,7.5C 65.5772,7.91409 59.9105,9.24742 54.5,11.5C 55.714,9.85144 57.0473,8.18477 58.5,6.5C 54.3627,5.36633 50.3627,5.86633 46.5,8C 43.9679,9.76535 41.3013,11.2653 38.5,12.5C 38.5,12.1667 38.5,11.8333 38.5,11.5C 48.4425,4.85249 59.4425,1.18582 71.5,0.5 Z"/></g>
<g><path style="opacity:0.255" fill="#414b92" d="M 90.5,1.5 C 101.274,4.78496 111.274,9.61829 120.5,16C 122.141,17.129 123.141,18.629 123.5,20.5C 114.137,12.899 103.637,7.23229 92,3.5C 90.9701,3.16389 90.4701,2.49722 90.5,1.5 Z"/></g>
<g><path style="opacity:0.627" fill="#404b94" d="M 96.5,11.5 C 90.7704,9.15427 84.7704,7.82094 78.5,7.5C 78.3691,6.62356 78.7025,5.95689 79.5,5.5C 84.1499,6.33212 88.8166,7.16545 93.5,8C 95.0629,8.75891 96.0629,9.92558 96.5,11.5 Z"/></g>
<g><path style="opacity:0.092" fill="#626aa5" d="M 38.5,11.5 C 38.5,11.8333 38.5,12.1667 38.5,12.5C 34.4577,15.5557 30.4577,18.5557 26.5,21.5C 29.3025,16.7606 33.3025,13.4273 38.5,11.5 Z"/></g>
<g><path style="opacity:0.961" fill="#060e6d" d="M 94.5,18.5 C 98.9447,22.0561 101.278,26.7227 101.5,32.5C 97.8333,32.5 94.1667,32.5 90.5,32.5C 87.7444,28.196 83.9111,25.196 79,23.5C 77.9302,23.528 77.0968,23.8614 76.5,24.5C 71.9929,24.4468 67.9929,25.7801 64.5,28.5C 62.9826,28.5106 61.8159,29.1772 61,30.5C 58.2424,35.7014 57.909,41.0347 60,46.5C 60.8763,48.6355 62.3763,49.9688 64.5,50.5C 65.1667,50.5 65.5,50.8333 65.5,51.5C 66.7131,55.6295 68.7131,56.2961 71.5,53.5C 77.4772,54.3808 82.8106,53.0475 87.5,49.5C 90.218,47.6183 90.8847,45.2849 89.5,42.5C 83.4008,43.8057 77.4008,43.8057 71.5,42.5C 71.5,39.8333 71.5,37.1667 71.5,34.5C 82.1667,34.5 92.8333,34.5 103.5,34.5C 103.913,40.037 103.08,45.3703 101,50.5C 98.3358,55.6362 95.1691,60.3029 91.5,64.5C 89.3037,64.59 87.137,64.9233 85,65.5C 83.6244,65.6842 82.7911,66.3509 82.5,67.5C 81.8333,67.5 81.1667,67.5 80.5,67.5C 75.4635,67.5874 70.4635,67.254 65.5,66.5C 62.5,65.1667 59.5,63.8333 56.5,62.5C 56.5,62.1667 56.5,61.8333 56.5,61.5C 51.9859,56.4749 48.9859,50.6416 47.5,44C 47.1639,42.9701 46.4972,42.4701 45.5,42.5C 45.19,39.2869 45.5233,36.2869 46.5,33.5C 49.0694,29.3654 51.4028,25.0321 53.5,20.5C 62.1179,13.012 72.1179,10.512 83.5,13C 87.4723,14.3194 91.1389,16.1528 94.5,18.5 Z"/></g>
<g><path style="opacity:0.494" fill="#303786" d="M 72.5,9.5 C 72.7911,10.6491 73.6244,11.3158 75,11.5C 76.3756,11.3158 77.2089,10.6491 77.5,9.5C 83.9392,10.0874 89.6059,12.4207 94.5,16.5C 94.5,17.1667 94.5,17.8333 94.5,18.5C 91.1389,16.1528 87.4723,14.3194 83.5,13C 72.1179,10.512 62.1179,13.012 53.5,20.5C 53.8588,18.629 54.8588,17.129 56.5,16C 61.1588,12.1694 66.4921,10.0027 72.5,9.5 Z"/></g>
<g><path style="opacity:0.071" fill="#7a83b4" d="M 72.5,9.5 C 74.1667,9.5 75.8333,9.5 77.5,9.5C 77.2089,10.6491 76.3756,11.3158 75,11.5C 73.6244,11.3158 72.7911,10.6491 72.5,9.5 Z"/></g>
<g><path style="opacity:0.043" fill="#4c599b" d="M 97.5,11.5 C 97.7352,10.9033 98.2352,10.5699 99,10.5C 105.185,13.0094 111.019,16.1761 116.5,20C 118.141,21.129 119.141,22.629 119.5,24.5C 114.38,21.2199 109.38,17.7199 104.5,14C 102.146,13.1529 99.8123,12.3195 97.5,11.5 Z"/></g>
<g><path style="opacity:0.004" fill="#4a569b" d="M 53.5,11.5 C 51.1877,12.3195 48.8543,13.1529 46.5,14C 41.6022,17.7451 36.6022,21.2451 31.5,24.5C 36.767,17.7648 43.6003,13.0981 52,10.5C 52.7648,10.5699 53.2648,10.9033 53.5,11.5 Z"/></g>
<g><path style="opacity:0.255" fill="#a2a9ca" d="M 123.5,20.5 C 125.5,20.5 126.5,21.5 126.5,23.5C 125.167,22.8333 124.167,21.8333 123.5,20.5 Z"/></g>
<g><path style="opacity:0.173" fill="#5960a0" d="M 76.5,24.5 C 77.0968,23.8614 77.9302,23.528 79,23.5C 83.9111,25.196 87.7444,28.196 90.5,32.5C 87.8737,31.1378 85.5404,29.3045 83.5,27C 81.257,25.8638 78.9237,25.0305 76.5,24.5 Z"/></g>
<g><path style="opacity:0.576" fill="#6570a9" d="M 119.5,24.5 C 123.565,26.2329 126.232,29.2329 127.5,33.5C 124.608,30.729 121.942,27.729 119.5,24.5 Z"/></g>
<g><path style="opacity:0.016" fill="#9199c0" d="M 31.5,24.5 C 31.5,26.5 30.5,27.5 28.5,27.5C 28.5,25.5 29.5,24.5 31.5,24.5 Z"/></g>
<g><path style="opacity:0.035" fill="#6771a9" d="M 94.5,16.5 C 99.0496,20.5732 102.383,25.5732 104.5,31.5C 103.675,32.3857 102.675,32.719 101.5,32.5C 101.278,26.7227 98.9447,22.0561 94.5,18.5C 94.5,17.8333 94.5,17.1667 94.5,16.5 Z"/></g>
<g><path style="opacity:0.035" fill="#6370aa" d="M 27.5,28.5 C 27.2624,30.4044 26.2624,31.7377 24.5,32.5C 24.5544,30.368 25.5544,29.0347 27.5,28.5 Z"/></g>
<g><path style="opacity:0.416" fill="#8289b7" d="M 26.5,21.5 C 23.8715,25.4627 20.8715,29.1294 17.5,32.5C 19.3717,27.9568 22.3717,24.2901 26.5,21.5 Z"/></g>
<g><path style="opacity:0.075" fill="#6d76ac" d="M 53.5,20.5 C 51.4028,25.0321 49.0694,29.3654 46.5,33.5C 47.0153,28.1329 49.3487,23.7995 53.5,20.5 Z"/></g>
<g><path style="opacity:0.206" fill="#39448e" d="M 71.5,34.5 C 71.5,37.1667 71.5,39.8333 71.5,42.5C 70.2521,41.6661 69.5854,40.3328 69.5,38.5C 69.5854,36.6672 70.2521,35.3339 71.5,34.5 Z"/></g>
<g><path style="opacity:0.153" fill="#7d87b6" d="M 17.5,32.5 C 13.6024,40.9061 9.93576,49.2394 6.5,57.5C 7.7665,47.9794 11.4332,39.6461 17.5,32.5 Z"/></g>
<g><path style="opacity:0.031" fill="#8993bf" d="M 126.5,23.5 C 133.372,29.5586 138.539,36.8919 142,45.5C 142.685,48.5789 143.519,51.5789 144.5,54.5C 143.833,54.5 143.167,54.5 142.5,54.5C 140.582,47.9881 138.082,41.6548 135,35.5C 131.902,31.6172 129.068,27.6172 126.5,23.5 Z"/></g>
<g><path style="opacity:0.243" fill="#6e76ac" d="M 64.5,28.5 C 59.1753,35.8719 59.1753,43.2052 64.5,50.5C 62.3763,49.9688 60.8763,48.6355 60,46.5C 57.909,41.0347 58.2424,35.7014 61,30.5C 61.8159,29.1772 62.9826,28.5106 64.5,28.5 Z"/></g>
<g><path style="opacity:0.098" fill="#9ea3c8" d="M 89.5,42.5 C 90.8847,45.2849 90.218,47.6183 87.5,49.5C 88.1667,47.1667 88.8333,44.8333 89.5,42.5 Z"/></g>
<g><path style="opacity:0.035" fill="#8f98c3" d="M 23.5,33.5 C 21.9549,37.6368 20.1216,41.6368 18,45.5C 16.8497,48.7679 16.0164,52.1012 15.5,55.5C 14.5084,55.6716 13.8417,55.3382 13.5,54.5C 14.9711,46.5597 18.3045,39.5597 23.5,33.5 Z"/></g>
<g><path style="opacity:0.159" fill="#7981b3" d="M 127.5,33.5 C 135.748,42.6483 139.415,53.3149 138.5,65.5C 137.157,59.6044 135.657,53.6044 134,47.5C 131.548,42.9317 129.382,38.265 127.5,33.5 Z"/></g>
<g><path style="opacity:0.999" fill="#10116e" d="M 54.5,11.5 C 54.1667,11.5 53.8333,11.5 53.5,11.5C 53.2648,10.9033 52.7648,10.5699 52,10.5C 43.6003,13.0981 36.767,17.7648 31.5,24.5C 29.5,24.5 28.5,25.5 28.5,27.5C 28.5,28.1667 28.1667,28.5 27.5,28.5C 25.5544,29.0347 24.5544,30.368 24.5,32.5C 24.5,33.1667 24.1667,33.5 23.5,33.5C 18.3045,39.5597 14.9711,46.5597 13.5,54.5C 12.087,57.2186 11.4203,60.2186 11.5,63.5C 11.3342,68.1785 11.5008,72.8452 12,77.5C 12.3826,78.056 12.8826,78.3893 13.5,78.5C 13.5,79.5 13.5,80.5 13.5,81.5C 12.8614,82.0968 12.528,82.9302 12.5,84C 14.366,91.8929 17.1994,99.3929 21,106.5C 21.7083,107.381 22.5416,108.047 23.5,108.5C 24.0798,110.749 25.4131,112.415 27.5,113.5C 28.1667,113.5 28.5,113.833 28.5,114.5C 30.9335,118.605 34.2668,121.605 38.5,123.5C 39.1667,123.833 39.8333,124.167 40.5,124.5C 40.3398,126.199 40.5065,127.866 41,129.5C 42.0495,128.483 43.2161,128.316 44.5,129C 43.4366,130.188 42.1033,130.688 40.5,130.5C 36.9744,127.906 33.3077,125.573 29.5,123.5C 29.1667,123.5 28.8333,123.5 28.5,123.5C 25.5892,118.254 21.9225,113.587 17.5,109.5C 16.5383,106.243 15.0383,103.243 13,100.5C 11.2042,95.5576 9.70424,90.5576 8.5,85.5C 8.00126,81.5101 7.50126,77.5101 7,73.5C 6.32924,72.7476 5.4959,72.4142 4.5,72.5C 4.5751,69.7938 4.90843,67.1272 5.5,64.5C 6.58617,64.38 7.25284,63.7133 7.5,62.5C 7.45728,61.5836 7.12395,60.9169 6.5,60.5C 6.5,59.5 6.5,58.5 6.5,57.5C 9.93576,49.2394 13.6024,40.9061 17.5,32.5C 20.8715,29.1294 23.8715,25.4627 26.5,21.5C 30.4577,18.5557 34.4577,15.5557 38.5,12.5C 41.3013,11.2653 43.9679,9.76535 46.5,8C 50.3627,5.86633 54.3627,5.36633 58.5,6.5C 57.0473,8.18477 55.714,9.85144 54.5,11.5 Z"/></g>
<g><path style="opacity:0.478" fill="#404991" d="M 65.5,51.5 C 67.4214,52.3627 69.4214,53.0293 71.5,53.5C 68.7131,56.2961 66.7131,55.6295 65.5,51.5 Z"/></g>
<g><path style="opacity:0.069" fill="#485195" d="M 13.5,54.5 C 13.8417,55.3382 14.5084,55.6716 15.5,55.5C 14.8333,57.5 14.1667,59.5 13.5,61.5C 12.6618,61.8417 12.3284,62.5084 12.5,63.5C 12.1667,63.5 11.8333,63.5 11.5,63.5C 11.4203,60.2186 12.087,57.2186 13.5,54.5 Z"/></g>
<g><path style="opacity:0.098" fill="#4f5a9d" d="M 142.5,54.5 C 143.167,54.5 143.833,54.5 144.5,54.5C 145.007,58.8595 145.673,63.1928 146.5,67.5C 145.5,67.5 144.5,67.5 143.5,67.5C 143.706,63.1018 143.373,58.7685 142.5,54.5 Z"/></g>
<g><path style="opacity:0.11" fill="#747db4" d="M 45.5,42.5 C 46.4972,42.4701 47.1639,42.9701 47.5,44C 48.9859,50.6416 51.9859,56.4749 56.5,61.5C 54.2843,60.7974 52.451,59.4641 51,57.5C 48.0268,52.8926 46.1934,47.8926 45.5,42.5 Z"/></g>
<g><path style="opacity:0.073" fill="#7783b6" d="M 103.5,34.5 C 104.94,35.9461 105.607,37.7794 105.5,40C 104.819,47.1968 102.319,53.6968 98,59.5C 96.2228,61.7899 94.0562,63.4566 91.5,64.5C 95.1691,60.3029 98.3358,55.6362 101,50.5C 103.08,45.3703 103.913,40.037 103.5,34.5 Z"/></g>
<g><path style="opacity:0.016" fill="#6a73a9" d="M 6.5,60.5 C 7.12395,60.9169 7.45728,61.5836 7.5,62.5C 7.25284,63.7133 6.58617,64.38 5.5,64.5C 5.43255,63.0413 5.76589,61.7079 6.5,60.5 Z"/></g>
<g><path style="opacity:0.888" fill="#d0221b" d="M 13.5,61.5 C 19.979,62.4907 26.6457,62.824 33.5,62.5C 35.2904,63.7608 36.9571,65.2608 38.5,67C 36.0747,74.1346 38.7414,77.1346 46.5,76C 47.2524,76.6708 47.5858,77.5041 47.5,78.5C 46.8333,78.5 46.1667,78.5 45.5,78.5C 34.8842,76.523 23.8842,75.8564 12.5,76.5C 12.5,72.1667 12.5,67.8333 12.5,63.5C 12.3284,62.5084 12.6618,61.8417 13.5,61.5 Z"/></g>
<g><path style="opacity:0.853" fill="#e1251b" d="M 33.5,62.5 C 41.1667,62.5 48.8333,62.5 56.5,62.5C 59.5,63.8333 62.5,65.1667 65.5,66.5C 68.1864,67.9908 71.1864,68.6575 74.5,68.5C 76.6965,68.4954 78.6965,68.162 80.5,67.5C 81.1667,67.5 81.8333,67.5 82.5,67.5C 83.8333,67.5 85.1667,67.5 86.5,67.5C 89.1667,67.5 91.8333,67.5 94.5,67.5C 93.9063,69.8775 93.573,72.2109 93.5,74.5C 91.1667,74.5 88.8333,74.5 86.5,74.5C 85.1667,74.5 83.8333,74.5 82.5,74.5C 77.6842,73.3503 72.6842,73.1837 67.5,74C 65.6803,74.2004 64.347,75.0337 63.5,76.5C 62.391,76.5569 61.391,76.8902 60.5,77.5C 59.0413,77.4326 57.7079,77.7659 56.5,78.5C 53.5,78.5 50.5,78.5 47.5,78.5C 47.5858,77.5041 47.2524,76.6708 46.5,76C 38.7414,77.1346 36.0747,74.1346 38.5,67C 36.9571,65.2608 35.2904,63.7608 33.5,62.5 Z"/></g>
<g><path style="opacity:0.984" fill="#5d3276" d="M 91.5,64.5 C 89.9275,65.6873 88.2608,66.6873 86.5,67.5C 85.1667,67.5 83.8333,67.5 82.5,67.5C 82.7911,66.3509 83.6244,65.6842 85,65.5C 87.137,64.9233 89.3037,64.59 91.5,64.5 Z"/></g>
<g><path style="opacity:0.749" fill="#fd7516" d="M 119.5,66.5 C 126.082,66.6077 132.415,66.6077 138.5,66.5C 139.473,68.9479 139.806,71.6146 139.5,74.5C 130.167,74.5 120.833,74.5 111.5,74.5C 114.008,72.7629 117.008,71.9296 120.5,72C 119.594,70.3005 119.261,68.4672 119.5,66.5 Z"/></g>
<g><path style="opacity:1" fill="#621849" d="M 65.5,66.5 C 70.4635,67.254 75.4635,67.5874 80.5,67.5C 78.6965,68.162 76.6965,68.4954 74.5,68.5C 71.1864,68.6575 68.1864,67.9908 65.5,66.5 Z"/></g>
<g><path style="opacity:0.867" fill="#f74f12" d="M 119.5,66.5 C 119.261,68.4672 119.594,70.3005 120.5,72C 117.008,71.9296 114.008,72.7629 111.5,74.5C 105.5,74.5 99.5,74.5 93.5,74.5C 93.573,72.2109 93.9063,69.8775 94.5,67.5C 102.84,67.309 111.174,66.9756 119.5,66.5 Z"/></g>
<g><path style="opacity:1" fill="#511453" d="M 82.5,74.5 C 76.0141,74.0811 69.6808,74.7477 63.5,76.5C 64.347,75.0337 65.6803,74.2004 67.5,74C 72.6842,73.1837 77.6842,73.3503 82.5,74.5 Z"/></g>
<g><path style="opacity:0.95" fill="#040d6d" d="M 82.5,74.5 C 86.4612,76.4806 90.4612,78.4806 94.5,80.5C 95.1667,80.8333 95.8333,81.1667 96.5,81.5C 97.6922,84.5622 99.1922,87.5622 101,90.5C 101.495,92.4727 101.662,94.4727 101.5,96.5C 97.8333,96.5 94.1667,96.5 90.5,96.5C 88.8556,91.5222 85.5222,88.1889 80.5,86.5C 73.3679,84.0296 67.3679,85.6962 62.5,91.5C 60.3939,93.7188 59.3939,96.3855 59.5,99.5C 65.6529,100.653 71.9863,100.82 78.5,100C 77.7476,99.3292 77.4142,98.4959 77.5,97.5C 78.1667,97.5 78.8333,97.5 79.5,97.5C 79.5,98.5 79.5,99.5 79.5,100.5C 80.8333,100.5 82.1667,100.5 83.5,100.5C 83.5,99.5 83.5,98.5 83.5,97.5C 89.8333,97.5 96.1667,97.5 102.5,97.5C 102.717,102.23 102.383,106.897 101.5,111.5C 101.649,112.552 101.483,113.552 101,114.5C 97.8623,117.792 95.3623,121.458 93.5,125.5C 93.5,126.167 93.1667,126.5 92.5,126.5C 92.44,125.957 92.1067,125.624 91.5,125.5C 83.9199,129.242 75.9199,130.409 67.5,129C 62.1007,126.744 57.1007,123.91 52.5,120.5C 51.5785,117.874 50.5785,115.207 49.5,112.5C 49.0431,111.702 48.3764,111.369 47.5,111.5C 46.596,110.791 46.2627,109.791 46.5,108.5C 51.1667,108.5 55.8333,108.5 60.5,108.5C 61.1355,110.795 62.4689,112.461 64.5,113.5C 65.6258,115.453 67.2925,116.953 69.5,118C 73.1667,118.667 76.8333,118.667 80.5,118C 81.7375,117.768 82.7375,117.268 83.5,116.5C 86.6695,114.522 89.1695,111.855 91,108.5C 91.7494,107.365 91.5827,106.365 90.5,105.5C 89.8933,105.624 89.56,105.957 89.5,106.5C 74.8333,106.5 60.1667,106.5 45.5,106.5C 45.244,102.731 45.5773,99.0641 46.5,95.5C 48.7466,91.9886 50.9133,88.322 53,84.5C 55.3959,81.9334 57.8959,79.6 60.5,77.5C 61.391,76.8902 62.391,76.5569 63.5,76.5C 69.6808,74.7477 76.0141,74.0811 82.5,74.5 Z"/></g>
<g><path style="opacity:0.24" fill="#d34a49" d="M 11.5,63.5 C 11.8333,63.5 12.1667,63.5 12.5,63.5C 12.5,67.8333 12.5,72.1667 12.5,76.5C 23.8842,75.8564 34.8842,76.523 45.5,78.5C 34.8333,78.5 24.1667,78.5 13.5,78.5C 12.8826,78.3893 12.3826,78.056 12,77.5C 11.5008,72.8452 11.3342,68.1785 11.5,63.5 Z"/></g>
<g><path style="opacity:0.016" fill="#5260a2" d="M 82.5,74.5 C 83.8333,74.5 85.1667,74.5 86.5,74.5C 88.7415,75.6207 91.0748,76.7874 93.5,78C 94.2524,78.6708 94.5858,79.5041 94.5,80.5C 90.4612,78.4806 86.4612,76.4806 82.5,74.5 Z"/></g>
<g><path style="opacity:0.318" fill="#4e569a" d="M 4.5,72.5 C 5.4959,72.4142 6.32924,72.7476 7,73.5C 7.50126,77.5101 8.00126,81.5101 8.5,85.5C 7.83333,85.5 7.16667,85.5 6.5,85.5C 6.15634,81.1055 5.48967,76.7722 4.5,72.5 Z"/></g>
<g><path style="opacity:0.239" fill="#7a82b4" d="M 60.5,77.5 C 57.8959,79.6 55.3959,81.9334 53,84.5C 50.9133,88.322 48.7466,91.9886 46.5,95.5C 48.0249,88.7854 51.3583,83.1188 56.5,78.5C 57.7079,77.7659 59.0413,77.4326 60.5,77.5 Z"/></g>
<g><path style="opacity:0.039" fill="#38428f" d="M 80.5,86.5 C 79.8333,86.5 79.5,86.8333 79.5,87.5C 73.5228,86.6192 68.1894,87.9525 63.5,91.5C 63.1667,91.5 62.8333,91.5 62.5,91.5C 67.3679,85.6962 73.3679,84.0296 80.5,86.5 Z"/></g>
<g><path style="opacity:0.008" fill="#6e79b0" d="M 79.5,87.5 C 79.5,86.8333 79.8333,86.5 80.5,86.5C 85.5222,88.1889 88.8556,91.5222 90.5,96.5C 87.7548,92.4259 84.0881,89.4259 79.5,87.5 Z"/></g>
<g><path style="opacity:0.153" fill="#747fb2" d="M 96.5,81.5 C 100.47,85.7724 103.137,90.7724 104.5,96.5C 103.5,96.5 102.5,96.5 101.5,96.5C 101.662,94.4727 101.495,92.4727 101,90.5C 99.1922,87.5622 97.6922,84.5622 96.5,81.5 Z"/></g>
<g><path style="opacity:0.008" fill="#626da7" d="M 146.5,75.5 C 145.344,83.8159 143.344,91.8159 140.5,99.5C 139.833,99.5 139.167,99.5 138.5,99.5C 141.943,91.9559 143.61,83.9559 143.5,75.5C 144.5,75.5 145.5,75.5 146.5,75.5 Z"/></g>
<g><path style="opacity:0.055" fill="#9da5c9" d="M 62.5,91.5 C 62.8333,91.5 63.1667,91.5 63.5,91.5C 63.1231,93.258 62.4565,94.9246 61.5,96.5C 66.456,97.4941 71.456,97.8275 76.5,97.5C 71.2649,99.45 65.5982,100.117 59.5,99.5C 59.3939,96.3855 60.3939,93.7188 62.5,91.5 Z"/></g>
<g><path style="opacity:0.012" fill="#9aa1c7" d="M 6.5,85.5 C 7.16667,85.5 7.83333,85.5 8.5,85.5C 9.70424,90.5576 11.2042,95.5576 13,100.5C 15.0383,103.243 16.5383,106.243 17.5,109.5C 11.1787,102.849 7.51203,94.849 6.5,85.5 Z"/></g>
<g><path style="opacity:0.102" fill="#7d86b6" d="M 13.5,81.5 C 15.6321,90.891 18.9654,99.891 23.5,108.5C 22.5416,108.047 21.7083,107.381 21,106.5C 17.1994,99.3929 14.366,91.8929 12.5,84C 12.528,82.9302 12.8614,82.0968 13.5,81.5 Z"/></g>
<g><path style="opacity:0.718" fill="#3e428c" d="M 76.5,97.5 C 76.8333,97.5 77.1667,97.5 77.5,97.5C 77.4142,98.4959 77.7476,99.3292 78.5,100C 71.9863,100.82 65.6529,100.653 59.5,99.5C 65.5982,100.117 71.2649,99.45 76.5,97.5 Z"/></g>
<g><path style="opacity:0.71" fill="#565a9b" d="M 79.5,97.5 C 79.8333,97.5 80.1667,97.5 80.5,97.5C 81.1667,100.167 81.8333,100.167 82.5,97.5C 82.8333,97.5 83.1667,97.5 83.5,97.5C 83.5,98.5 83.5,99.5 83.5,100.5C 82.1667,100.5 80.8333,100.5 79.5,100.5C 79.5,99.5 79.5,98.5 79.5,97.5 Z"/></g>
<g><path style="opacity:0.157" fill="#c9cfe0" d="M 80.5,97.5 C 81.1667,97.5 81.8333,97.5 82.5,97.5C 81.8333,100.167 81.1667,100.167 80.5,97.5 Z"/></g>
<g><path style="opacity:0.278" fill="#939dc5" d="M 138.5,99.5 C 139.167,99.5 139.833,99.5 140.5,99.5C 137.901,105.044 134.568,110.044 130.5,114.5C 133.409,109.686 136.075,104.686 138.5,99.5 Z"/></g>
<g><path style="opacity:0.353" fill="#50589b" d="M 102.5,97.5 C 104.714,98.3915 105.714,100.058 105.5,102.5C 105.196,105.386 104.529,108.052 103.5,110.5C 102.833,110.833 102.167,111.167 101.5,111.5C 102.383,106.897 102.717,102.23 102.5,97.5 Z"/></g>
<g><path style="opacity:0.075" fill="#686fa8" d="M 23.5,108.5 C 25.5869,109.585 26.9202,111.251 27.5,113.5C 25.4131,112.415 24.0798,110.749 23.5,108.5 Z"/></g>
<g><path style="opacity:0.392" fill="#6a72aa" d="M 60.5,108.5 C 62.5869,109.585 63.9202,111.251 64.5,113.5C 62.4689,112.461 61.1355,110.795 60.5,108.5 Z"/></g>
<g><path style="opacity:0.518" fill="#737cb0" d="M 137.5,77.5 C 138.725,78.1522 139.392,79.3189 139.5,81C 137.466,90.7096 133.966,99.8763 129,108.5C 127.281,111.288 125.115,113.621 122.5,115.5C 122.5,115.167 122.5,114.833 122.5,114.5C 131.586,103.928 136.586,91.5946 137.5,77.5 Z"/></g>
<g><path style="opacity:0.314" fill="#7881b4" d="M 17.5,109.5 C 21.9225,113.587 25.5892,118.254 28.5,123.5C 24.0775,119.413 20.4108,114.746 17.5,109.5 Z"/></g>
<g><path style="opacity:0.31" fill="#6f76ab" d="M 83.5,116.5 C 82.5084,116.672 81.8417,116.338 81.5,115.5C 85.5649,113.767 88.2316,110.767 89.5,106.5C 89.56,105.957 89.8933,105.624 90.5,105.5C 91.5827,106.365 91.7494,107.365 91,108.5C 89.1695,111.855 86.6695,114.522 83.5,116.5 Z"/></g>
<g><path style="opacity:0.424" fill="#848bba" d="M 47.5,111.5 C 48.3764,111.369 49.0431,111.702 49.5,112.5C 50.5785,115.207 51.5785,117.874 52.5,120.5C 50.0764,117.992 48.4097,114.992 47.5,111.5 Z"/></g>
<g><path style="opacity:0.184" fill="#4c5598" d="M 28.5,114.5 C 32.4818,116.817 35.8151,119.817 38.5,123.5C 34.2668,121.605 30.9335,118.605 28.5,114.5 Z"/></g>
<g><path style="opacity:0.282" fill="#444e93" d="M 64.5,113.5 C 69.9178,116.386 75.5844,117.052 81.5,115.5C 81.8417,116.338 82.5084,116.672 83.5,116.5C 82.7375,117.268 81.7375,117.768 80.5,118C 76.8333,118.667 73.1667,118.667 69.5,118C 67.2925,116.953 65.6258,115.453 64.5,113.5 Z"/></g>
<g><path style="opacity:0.027" fill="#868fbd" d="M 103.5,110.5 C 102.408,117.024 99.0745,122.024 93.5,125.5C 95.3623,121.458 97.8623,117.792 101,114.5C 101.483,113.552 101.649,112.552 101.5,111.5C 102.167,111.167 102.833,110.833 103.5,110.5 Z"/></g>
<g><path style="opacity:0.004" fill="#808aba" d="M 130.5,114.5 C 128.878,117.455 126.878,120.122 124.5,122.5C 124.5,121.833 124.5,121.167 124.5,120.5C 126.167,118.167 128.167,116.167 130.5,114.5 Z"/></g>
<g><path style="opacity:0.557" fill="#39418c" d="M 122.5,114.5 C 122.5,114.833 122.5,115.167 122.5,115.5C 113.324,126.305 101.657,132.972 87.5,135.5C 86.2739,135.48 85.2739,135.147 84.5,134.5C 99.2743,131.7 111.941,125.033 122.5,114.5 Z"/></g>
<g><path style="opacity:0.997" fill="#2a2d80" d="M 40.5,124.5 C 46.3218,128.331 52.6551,130.998 59.5,132.5C 59.6309,133.376 59.2975,134.043 58.5,134.5C 56.0322,132.931 53.3655,131.931 50.5,131.5C 46.8972,132.918 47.2306,134.418 51.5,136C 57.7216,136.383 63.0549,138.55 67.5,142.5C 66.5,142.5 65.5,142.5 64.5,142.5C 57.4853,139.655 50.4853,136.655 43.5,133.5C 42.9002,132.1 41.9002,131.1 40.5,130.5C 42.1033,130.688 43.4366,130.188 44.5,129C 43.2161,128.316 42.0495,128.483 41,129.5C 40.5065,127.866 40.3398,126.199 40.5,124.5 Z"/></g>
<g><path style="opacity:0.725" fill="#404791" d="M 52.5,120.5 C 57.1007,123.91 62.1007,126.744 67.5,129C 75.9199,130.409 83.9199,129.242 91.5,125.5C 92.1067,125.624 92.44,125.957 92.5,126.5C 81.3472,132.985 70.0139,133.152 58.5,127C 56.2941,124.963 54.2941,122.797 52.5,120.5 Z"/></g>
<g><path style="opacity:0.004" fill="#445197" d="M 29.5,123.5 C 33.3077,125.573 36.9744,127.906 40.5,130.5C 41.9002,131.1 42.9002,132.1 43.5,133.5C 41.4068,132.955 39.4068,132.122 37.5,131C 34.3078,128.972 31.6411,126.472 29.5,123.5 Z"/></g>
<g><path style="opacity:0.02" fill="#404b93" d="M 124.5,120.5 C 124.5,121.167 124.5,121.833 124.5,122.5C 113.719,131.725 101.386,138.058 87.5,141.5C 86.8333,141.5 86.1667,141.5 85.5,141.5C 93.8091,138.474 102.142,134.974 110.5,131C 115.61,128.053 120.276,124.553 124.5,120.5 Z"/></g>
<g><path style="opacity:0.01" fill="#6c7db0" d="M 85.5,141.5 C 86.1667,141.5 86.8333,141.5 87.5,141.5C 87.5,141.833 87.5,142.167 87.5,142.5C 81.8333,142.5 76.1667,142.5 70.5,142.5C 71.5145,141.235 73.0145,140.569 75,140.5C 78.5058,141.125 82.0058,141.458 85.5,141.5 Z"/></g>
</svg>
